<svg width="1200" height="800" viewBox="0 0 1200 800" fill="none" xmlns="http://www.w3.org/2000/svg">
  <rect width="1200" height="800" rx="40" fill="#100f12" />
  <rect x="60" y="60" width="1080" height="680" rx="32" fill="#1b191d" />
  <rect x="120" y="120" width="960" height="560" rx="28" fill="url(#paint0_linear)" />
  <rect x="140" y="140" width="400" height="520" rx="24" fill="#111" />
  <rect x="180" y="220" width="320" height="320" rx="28" fill="#2b282c" />
  <rect x="610" y="180" width="360" height="420" rx="32" fill="#141216" />
  <rect x="650" y="240" width="280" height="180" rx="18" fill="#222" />
  <rect x="650" y="460" width="280" height="100" rx="24" fill="#ef4444" opacity="0.6" />
  <rect x="210" y="280" width="140" height="220" rx="18" fill="#1c1a1d" stroke="#ef4444" stroke-width="8" />
  <circle cx="280" cy="420" r="58" fill="#161417" stroke="#ef4444" stroke-width="8" />
  <path d="M720 520H860L830 640H750L720 520Z" fill="#0f0d10" stroke="#ef4444" stroke-width="6" />
  <rect x="900" y="220" width="120" height="240" rx="22" fill="#201c20" />
  <rect x="920" y="240" width="80" height="80" rx="12" fill="#2a262a" />
  <rect x="920" y="340" width="80" height="80" rx="12" fill="#2a262a" />
  <rect x="160" y="160" width="160" height="36" rx="18" fill="#ef4444" />
  <rect x="860" y="560" width="160" height="36" rx="18" fill="#ef4444" />
  <text x="170" y="188" font-family="'Bebas Neue', Arial, sans-serif" font-size="30" fill="#fff" letter-spacing="6">REXHA</text>
  <text x="870" y="588" font-family="'Inter', Arial, sans-serif" font-size="24" fill="#fff">SKIN FADE IN SESSION</text>
  <defs>
    <linearGradient id="paint0_linear" x1="120" y1="120" x2="1080" y2="680" gradientUnits="userSpaceOnUse">
      <stop stop-color="#1a181c" />
      <stop offset="0.5" stop-color="#231f23" />
      <stop offset="1" stop-color="#141214" />
    </linearGradient>
  </defs>
</svg>
