<svg width="1200" height="800" viewBox="0 0 1200 800" fill="none" xmlns="http://www.w3.org/2000/svg">
  <rect width="1200" height="800" rx="40" fill="#111" />
  <rect x="60" y="60" width="1080" height="680" rx="32" fill="#151316" />
  <rect x="120" y="120" width="960" height="560" rx="28" fill="#1e1b1f" />
  <rect x="160" y="160" width="320" height="480" rx="26" fill="#0f0d10" stroke="#ef4444" stroke-width="10" />
  <rect x="720" y="180" width="320" height="440" rx="30" fill="#1a181c" stroke="#ef4444" stroke-width="6" />
  <rect x="210" y="220" width="220" height="120" rx="22" fill="#222" />
  <rect x="210" y="380" width="220" height="120" rx="22" fill="#222" />
  <circle cx="870" cy="420" r="80" fill="#19171b" stroke="#ef4444" stroke-width="8" />
  <rect x="780" y="500" width="200" height="90" rx="20" fill="#ef4444" opacity="0.8" />
  <rect x="540" y="220" width="140" height="380" rx="20" fill="#101010" />
  <rect x="560" y="250" width="100" height="90" rx="18" fill="#1f1b1f" />
  <rect x="560" y="360" width="100" height="90" rx="18" fill="#1f1b1f" />
  <rect x="560" y="470" width="100" height="90" rx="18" fill="#1f1b1f" />
  <text x="770" y="552" font-family="'Inter', Arial, sans-serif" font-size="28" fill="#111">FRESH CUTS</text>
  <text x="190" y="640" font-family="'Bebas Neue', Arial, sans-serif" font-size="42" fill="#ef4444" letter-spacing="4">OPEN VIEW · MODERN CHAIRS</text>
</svg>
